<svg xmlns="http://www.w3.org/2000/svg" xmlns:svg="http://www.w3.org/2000/svg" id="svg7859" width="210mm" height="150mm" version="1.1" viewBox="0 0 210 150"><metadata id="metadata7856"/><g id="layer1" transform="translate(0,-147)"><rect style="fill:#fff;stroke:#000;stroke-width:.13319464" id="rect7919-3-7" width="26.46" height="16.19" x="12.83" y="246.842"/><text id="text7917-5-3" x="51.311" y="237.153" style="font-style:normal;font-weight:400;font-size:4.93888855px;line-height:1.25;font-family:sans-serif;letter-spacing:0;word-spacing:0;fill:#000;fill-opacity:1;stroke:none;stroke-width:.26458332" xml:space="preserve"><tspan style="fill:#000;stroke-width:.26458332" id="tspan7915-3-6" x="51.311" y="237.153">Select the right answer?</tspan></text><rect style="fill:#fff;stroke:#000;stroke-width:.13272126" id="rect7919-0" width="26.271" height="16.19" x="47.226" y="246.625"/><rect style="fill:#fff;stroke:#000;stroke-width:.13272126" id="rect7919-3-9" width="26.271" height="16.19" x="80.11" y="246.184"/><text id="text8090" x="20.071" y="257.002" style="font-style:normal;font-weight:400;font-size:4.93888855px;line-height:1.25;font-family:sans-serif;letter-spacing:0;word-spacing:0;fill:#000;fill-opacity:1;stroke:none;stroke-width:.26458332" xml:space="preserve"><tspan style="stroke-width:.26458332" id="tspan8088" x="20.071" y="257.002">R850</tspan></text><text id="text8094" x="53.865" y="255.743" style="font-style:normal;font-weight:400;font-size:4.93888855px;line-height:1.25;font-family:sans-serif;letter-spacing:0;word-spacing:0;fill:#000;fill-opacity:1;stroke:none;stroke-width:.26458332" xml:space="preserve"><tspan style="stroke-width:.26458332" id="tspan8092" x="53.865" y="255.743">R750</tspan></text><text id="text8098" x="86.968" y="256.215" style="font-style:normal;font-weight:400;font-size:4.93888855px;line-height:1.25;font-family:sans-serif;letter-spacing:0;word-spacing:0;fill:#000;fill-opacity:1;stroke:none;stroke-width:.26458332" xml:space="preserve"><tspan style="stroke-width:.26458332" id="tspan8096" x="86.968" y="256.215">R650</tspan></text><text id="text8102" x="29.447" y="164.418" style="font-style:normal;font-weight:400;font-size:4.93888855px;line-height:1.25;font-family:sans-serif;letter-spacing:0;word-spacing:0;fill:#000;fill-opacity:1;stroke:none;stroke-width:.26458332" xml:space="preserve"><tspan style="font-size:7.05555534px;stroke-width:.26458332" id="tspan8100" x="29.447" y="164.418">Assessment / Challenge</tspan></text><rect style="fill:#fff;stroke:#000;stroke-width:.13272128" id="rect7919-3-9-3" width="26.271" height="16.19" x="118.007" y="246.423"/><text id="text8098-1" x="124.865" y="256.454" style="font-style:normal;font-weight:400;font-size:4.93888855px;line-height:1.25;font-family:sans-serif;letter-spacing:0;word-spacing:0;fill:#000;fill-opacity:1;stroke:none;stroke-width:.26458332" xml:space="preserve"><tspan style="stroke-width:.26458332" id="tspan8096-9" x="124.865" y="256.454">R450</tspan></text><path id="path540-4" d="m 164.51337,188.00595 c 0,-0.073 -0.0593,-0.13229 -0.13229,-0.13229 h -5.30304 c -0.073,0 -0.13229,0.0593 -0.13229,0.13229 0,0.073 0.0593,0.13229 0.13229,0.13229 h 5.30304 c 0.0733,0 0.13229,-0.0593 0.13229,-0.13229 z" style="fill:#000;stroke-width:.26458332"/><path id="path542-9" d="m 164.24323,189.49079 v -0.95567 c 0,-0.073 -0.0593,-0.13229 -0.13229,-0.13229 h -4.7408 c -0.073,0 -0.13229,0.0593 -0.13229,0.13229 v 0.95567 c 0,1.31657 1.00753,2.20927 1.5912,2.61567 -0.66913,0.46091 -1.6129,1.33774 -1.6129,2.61647 v 0.95567 c 0,0.073 0.0593,0.1323 0.13229,0.1323 h 4.7625 c 0.073,0 0.13229,-0.0593 0.13229,-0.1323 v -0.948 c 0,-1.31286 -1.02208,-2.21324 -1.61263,-2.62361 0.66913,-0.46064 1.61263,-1.33747 1.61263,-2.6162 z m -2.51354,4.78314 1.27265,1.27265 h -2.54529 z m 0.59055,-2.27859 c -0.0384,0.0243 -0.0614,0.0664 -0.0614,0.11165 0,0.0453 0.023,0.0876 0.0614,0.11166 0.49848,0.31617 1.65841,1.1938 1.65841,2.51195 v 0.81598 h -0.60537 c -0.002,-0.003 -0.003,-0.007 -0.006,-0.009 l -1.50521,-1.50522 v -0.20531 c 0,-0.073 -0.0593,-0.1323 -0.13229,-0.1323 -0.073,0 -0.13229,0.0593 -0.13229,0.1323 v 0.20531 l -1.50522,1.50522 c -0.003,0.003 -0.004,0.006 -0.006,0.009 h -0.60535 v -0.82339 c 0,-1.26391 1.03901,-2.11164 1.6584,-2.50428 0.0384,-0.0243 0.0614,-0.0664 0.0614,-0.11165 0,-0.0452 -0.023,-0.0876 -0.0614,-0.11166 -0.49212,-0.31194 -1.63671,-1.18057 -1.63671,-2.50428 v -0.82391 h 4.47622 v 0.82338 c 0,1.26418 -1.03902,2.11164 -1.65841,2.50455 z" style="fill:#000;stroke-width:.26458332"/><path id="path544-0" d="m 163.06346,190.2475 h -2.59662 c -0.0474,0 -0.0913,0.0254 -0.11483,0.0664 -0.0236,0.0413 -0.0233,0.0918 6.6e-4,0.13256 0.31406,0.53472 0.77258,0.86201 1.25809,1.20888 l 0.0421,0.0299 c 0.023,0.0164 0.0497,0.0246 0.077,0.0246 0.0272,0 0.054,-0.008 0.077,-0.0246 0.0693,-0.0495 0.13917,-0.0982 0.20902,-0.14685 0.43365,-0.30268 0.88212,-0.61542 1.16179,-1.09193 0.0241,-0.0408 0.0243,-0.0916 6.6e-4,-0.13256 -0.0241,-0.041 -0.0677,-0.0664 -0.1151,-0.0664 z m -1.19936,1.07395 c -0.0447,0.0312 -0.0894,0.0624 -0.13414,0.0939 -0.3982,-0.28442 -0.7501,-0.54028 -1.01759,-0.90355 h 2.10159 c -0.24898,0.32068 -0.59108,0.55933 -0.94986,0.80963 z" style="fill:#000;stroke-width:.26458332"/><path id="path546-9" d="m 159.0783,196.34033 h 5.30305 c 0.073,0 0.13229,-0.0593 0.13229,-0.13229 0,-0.073 -0.0593,-0.1323 -0.13229,-0.1323 h -5.30305 c -0.073,0 -0.13229,0.0593 -0.13229,0.1323 0,0.073 0.059,0.13229 0.13229,0.13229 z" style="fill:#000;stroke-width:.26458332"/><path id="path548" d="m 161.72969,192.90074 c -0.073,0 -0.13229,0.0593 -0.13229,0.1323 v 0.26458 c 0,0.073 0.0593,0.13229 0.13229,0.13229 0.073,0 0.1323,-0.0593 0.1323,-0.13229 v -0.26458 c 0,-0.073 -0.0593,-0.1323 -0.1323,-0.1323 z" style="fill:#000;stroke-width:.26458332"/><path id="path550-1" d="m 161.72969,192.10699 c -0.073,0 -0.13229,0.0593 -0.13229,0.1323 v 0.26458 c 0,0.073 0.0593,0.13229 0.13229,0.13229 0.073,0 0.1323,-0.0593 0.1323,-0.13229 v -0.26458 c 0,-0.073 -0.0593,-0.1323 -0.1323,-0.1323 z" style="fill:#000;stroke-width:.26458332"/><text id="text8102-4" x="156.91" y="179.444" style="font-style:normal;font-weight:400;font-size:4.93888855px;line-height:1.25;font-family:sans-serif;letter-spacing:0;word-spacing:0;fill:#000;fill-opacity:1;stroke:none;stroke-width:.26458332" xml:space="preserve"><tspan style="font-size:7.05555534px;stroke-width:.26458332" id="tspan8100-7" x="156.91" y="179.444">Time Attack</tspan></text><text id="text8322" x="170.045" y="193.997" style="font-style:normal;font-weight:400;font-size:4.93888855px;line-height:1.25;font-family:sans-serif;letter-spacing:0;word-spacing:0;fill:#000;fill-opacity:1;stroke:none;stroke-width:.26458332" xml:space="preserve"><tspan style="stroke-width:.26458332" id="tspan8320" x="170.045" y="193.997"><tspan id="tspan8324" style="fill:#a00">49</tspan> seconds</tspan></text><rect id="rect8341" width="110.65" height="44.76" x="26.727" y="179.543" style="fill:#fff;stroke:teal;stroke-width:.2715396"/><path id="path8345" d="M 32.205979,219.3582 128.95755,184.61316" style="fill:none;stroke:teal;stroke-width:.26458332px;stroke-linecap:butt;stroke-linejoin:miter;stroke-opacity:1"/><path id="path8345-8" d="M 32.205978,184.61316 128.95755,219.3582" style="fill:none;stroke:teal;stroke-width:.26458332px;stroke-linecap:butt;stroke-linejoin:miter;stroke-opacity:1"/></g></svg>