<?xml version="1.0" encoding="UTF-8" standalone="no"?>
<svg
   xmlns:dc="http://purl.org/dc/elements/1.1/"
   xmlns:cc="http://creativecommons.org/ns#"
   xmlns:rdf="http://www.w3.org/1999/02/22-rdf-syntax-ns#"
   xmlns:svg="http://www.w3.org/2000/svg"
   xmlns="http://www.w3.org/2000/svg"
   id="svg7859"
   version="1.1"
   viewBox="0 0 210 150"
   height="150mm"
   width="210mm">
  <defs
     id="defs7853" />
  <metadata
     id="metadata7856">
    <rdf:RDF>
      <cc:Work
         rdf:about="">
        <dc:format>image/svg+xml</dc:format>
        <dc:type
           rdf:resource="http://purl.org/dc/dcmitype/StillImage" />
        <dc:title></dc:title>
      </cc:Work>
    </rdf:RDF>
  </metadata>
  <g
     transform="translate(0,-147)"
     id="layer1">
    <rect
       style="fill:#ffffff;stroke:#000000;stroke-width:0.13319464"
       y="246.8418"
       x="12.830327"
       height="16.189957"
       width="26.460003"
       id="rect7919-3-7" />
    <text
       id="text7917-5-3"
       y="237.15288"
       x="51.311138"
       style="font-style:normal;font-weight:normal;font-size:4.93888855px;line-height:1.25;font-family:sans-serif;letter-spacing:0px;word-spacing:0px;fill:#000000;fill-opacity:1;stroke:none;stroke-width:0.26458332"
       xml:space="preserve"><tspan
         style="fill:#000000;stroke-width:0.26458332"
         y="237.15288"
         x="51.311138"
         id="tspan7915-3-6">Select the right answer?</tspan></text>
    <rect
       style="fill:#ffffff;stroke:#000000;stroke-width:0.13272126"
       y="246.62474"
       x="47.225925"
       height="16.19043"
       width="26.271488"
       id="rect7919-0" />
    <rect
       style="fill:#ffffff;stroke:#000000;stroke-width:0.13272126"
       y="246.1842"
       x="80.109856"
       height="16.19043"
       width="26.271488"
       id="rect7919-3-9" />
    <text
       id="text8090"
       y="257.00223"
       x="20.071142"
       style="font-style:normal;font-weight:normal;font-size:4.93888855px;line-height:1.25;font-family:sans-serif;letter-spacing:0px;word-spacing:0px;fill:#000000;fill-opacity:1;stroke:none;stroke-width:0.26458332"
       xml:space="preserve"><tspan
         style="stroke-width:0.26458332"
         y="257.00223"
         x="20.071142"
         id="tspan8088">R850</tspan></text>
    <text
       id="text8094"
       y="255.74323"
       x="53.86507"
       style="font-style:normal;font-weight:normal;font-size:4.93888855px;line-height:1.25;font-family:sans-serif;letter-spacing:0px;word-spacing:0px;fill:#000000;fill-opacity:1;stroke:none;stroke-width:0.26458332"
       xml:space="preserve"><tspan
         style="stroke-width:0.26458332"
         y="255.74323"
         x="53.86507"
         id="tspan8092">R750</tspan></text>
    <text
       id="text8098"
       y="256.21518"
       x="86.968124"
       style="font-style:normal;font-weight:normal;font-size:4.93888855px;line-height:1.25;font-family:sans-serif;letter-spacing:0px;word-spacing:0px;fill:#000000;fill-opacity:1;stroke:none;stroke-width:0.26458332"
       xml:space="preserve"><tspan
         style="stroke-width:0.26458332"
         y="256.21518"
         x="86.968124"
         id="tspan8096">R650</tspan></text>
    <text
       id="text8102"
       y="164.41762"
       x="29.446857"
       style="font-style:normal;font-weight:normal;font-size:4.93888855px;line-height:1.25;font-family:sans-serif;letter-spacing:0px;word-spacing:0px;fill:#000000;fill-opacity:1;stroke:none;stroke-width:0.26458332"
       xml:space="preserve"><tspan
         style="font-size:7.05555534px;stroke-width:0.26458332"
         y="164.41762"
         x="29.446857"
         id="tspan8100">Assessment / Challenge</tspan></text>
    <rect
       style="fill:#ffffff;stroke:#000000;stroke-width:0.13272128"
       y="246.42276"
       x="118.00721"
       height="16.19043"
       width="26.271488"
       id="rect7919-3-9-3" />
    <text
       id="text8098-1"
       y="256.45374"
       x="124.86549"
       style="font-style:normal;font-weight:normal;font-size:4.93888855px;line-height:1.25;font-family:sans-serif;letter-spacing:0px;word-spacing:0px;fill:#000000;fill-opacity:1;stroke:none;stroke-width:0.26458332"
       xml:space="preserve"><tspan
         style="stroke-width:0.26458332"
         y="256.45374"
         x="124.86549"
         id="tspan8096-9">R450</tspan></text>
    <path
       d="m 164.51337,188.00595 c 0,-0.073 -0.0593,-0.13229 -0.13229,-0.13229 h -5.30304 c -0.073,0 -0.13229,0.0593 -0.13229,0.13229 0,0.073 0.0593,0.13229 0.13229,0.13229 h 5.30304 c 0.0733,0 0.13229,-0.0593 0.13229,-0.13229 z"
       id="path540-4"
       style="fill:#000000;stroke-width:0.26458332" />
    <path
       d="m 164.24323,189.49079 v -0.95567 c 0,-0.073 -0.0593,-0.13229 -0.13229,-0.13229 h -4.7408 c -0.073,0 -0.13229,0.0593 -0.13229,0.13229 v 0.95567 c 0,1.31657 1.00753,2.20927 1.5912,2.61567 -0.66913,0.46091 -1.6129,1.33774 -1.6129,2.61647 v 0.95567 c 0,0.073 0.0593,0.1323 0.13229,0.1323 h 4.7625 c 0.073,0 0.13229,-0.0593 0.13229,-0.1323 v -0.948 c 0,-1.31286 -1.02208,-2.21324 -1.61263,-2.62361 0.66913,-0.46064 1.61263,-1.33747 1.61263,-2.6162 z m -2.51354,4.78314 1.27265,1.27265 h -2.54529 z m 0.59055,-2.27859 c -0.0384,0.0243 -0.0614,0.0664 -0.0614,0.11165 0,0.0453 0.023,0.0876 0.0614,0.11166 0.49848,0.31617 1.65841,1.1938 1.65841,2.51195 v 0.81598 h -0.60537 c -0.002,-0.003 -0.003,-0.007 -0.006,-0.009 l -1.50521,-1.50522 v -0.20531 c 0,-0.073 -0.0593,-0.1323 -0.13229,-0.1323 -0.073,0 -0.13229,0.0593 -0.13229,0.1323 v 0.20531 l -1.50522,1.50522 c -0.003,0.003 -0.004,0.006 -0.006,0.009 h -0.60535 v -0.82339 c 0,-1.26391 1.03901,-2.11164 1.6584,-2.50428 0.0384,-0.0243 0.0614,-0.0664 0.0614,-0.11165 0,-0.0452 -0.023,-0.0876 -0.0614,-0.11166 -0.49212,-0.31194 -1.63671,-1.18057 -1.63671,-2.50428 v -0.82391 h 4.47622 v 0.82338 c 0,1.26418 -1.03902,2.11164 -1.65841,2.50455 z"
       id="path542-9"
       style="fill:#000000;stroke-width:0.26458332" />
    <path
       d="m 163.06346,190.2475 h -2.59662 c -0.0474,0 -0.0913,0.0254 -0.11483,0.0664 -0.0236,0.0413 -0.0233,0.0918 6.6e-4,0.13256 0.31406,0.53472 0.77258,0.86201 1.25809,1.20888 l 0.0421,0.0299 c 0.023,0.0164 0.0497,0.0246 0.077,0.0246 0.0272,0 0.054,-0.008 0.077,-0.0246 0.0693,-0.0495 0.13917,-0.0982 0.20902,-0.14685 0.43365,-0.30268 0.88212,-0.61542 1.16179,-1.09193 0.0241,-0.0408 0.0243,-0.0916 6.6e-4,-0.13256 -0.0241,-0.041 -0.0677,-0.0664 -0.1151,-0.0664 z m -1.19936,1.07395 c -0.0447,0.0312 -0.0894,0.0624 -0.13414,0.0939 -0.3982,-0.28442 -0.7501,-0.54028 -1.01759,-0.90355 h 2.10159 c -0.24898,0.32068 -0.59108,0.55933 -0.94986,0.80963 z"
       id="path544-0"
       style="fill:#000000;stroke-width:0.26458332" />
    <path
       d="m 159.0783,196.34033 h 5.30305 c 0.073,0 0.13229,-0.0593 0.13229,-0.13229 0,-0.073 -0.0593,-0.1323 -0.13229,-0.1323 h -5.30305 c -0.073,0 -0.13229,0.0593 -0.13229,0.1323 0,0.073 0.059,0.13229 0.13229,0.13229 z"
       id="path546-9"
       style="fill:#000000;stroke-width:0.26458332" />
    <path
       d="m 161.72969,192.90074 c -0.073,0 -0.13229,0.0593 -0.13229,0.1323 v 0.26458 c 0,0.073 0.0593,0.13229 0.13229,0.13229 0.073,0 0.1323,-0.0593 0.1323,-0.13229 v -0.26458 c 0,-0.073 -0.0593,-0.1323 -0.1323,-0.1323 z"
       id="path548"
       style="fill:#000000;stroke-width:0.26458332" />
    <path
       d="m 161.72969,192.10699 c -0.073,0 -0.13229,0.0593 -0.13229,0.1323 v 0.26458 c 0,0.073 0.0593,0.13229 0.13229,0.13229 0.073,0 0.1323,-0.0593 0.1323,-0.13229 v -0.26458 c 0,-0.073 -0.0593,-0.1323 -0.1323,-0.1323 z"
       id="path550-1"
       style="fill:#000000;stroke-width:0.26458332" />
    <text
       id="text8102-4"
       y="179.44441"
       x="156.90956"
       style="font-style:normal;font-weight:normal;font-size:4.93888855px;line-height:1.25;font-family:sans-serif;letter-spacing:0px;word-spacing:0px;fill:#000000;fill-opacity:1;stroke:none;stroke-width:0.26458332"
       xml:space="preserve"><tspan
         style="font-size:7.05555534px;stroke-width:0.26458332"
         y="179.44441"
         x="156.90956"
         id="tspan8100-7">Time Attack</tspan></text>
    <text
       id="text8322"
       y="193.99689"
       x="170.04517"
       style="font-style:normal;font-weight:normal;font-size:4.93888855px;line-height:1.25;font-family:sans-serif;letter-spacing:0px;word-spacing:0px;fill:#000000;fill-opacity:1;stroke:none;stroke-width:0.26458332"
       xml:space="preserve"><tspan
         style="stroke-width:0.26458332"
         y="193.99689"
         x="170.04517"
         id="tspan8320"><tspan
   id="tspan8324"
   style="fill:#aa0000">49</tspan> seconds</tspan></text>
    <rect
       y="179.54291"
       x="26.726952"
       height="44.759785"
       width="110.64958"
       id="rect8341"
       style="fill:#ffffff;stroke:#008080;stroke-width:0.2715396" />
    <path
       id="path8345"
       d="M 32.205979,219.3582 128.95755,184.61316"
       style="fill:none;stroke:#008080;stroke-width:0.26458332px;stroke-linecap:butt;stroke-linejoin:miter;stroke-opacity:1" />
    <path
       id="path8345-8"
       d="M 32.205978,184.61316 128.95755,219.3582"
       style="fill:none;stroke:#008080;stroke-width:0.26458332px;stroke-linecap:butt;stroke-linejoin:miter;stroke-opacity:1" />
  </g>
</svg>
